{
	"asset": {
		"generator": "VISUALIZEGLTF",
		"version" : "2.0"
	},
	"extensionsUsed": [ "KHR_texture_transform" ],
	"scenes": [
		{
			"name": "Default",
			"nodes": [
				0]
		}
	],
	"nodes": [
		{
			"children": [
				1, 5, 6, 7, 8
			]
			,"name": "Root"		}
,
		{
			"children": [
				2
			]
			,"matrix": [
				1,					0,					0,					0,
				0,					1,					0,					0,
				0,					0,					1,					0,
				0,					0.3603,					0,					1
			]
			,"name": "Coffee table 19-02-21 (Default)"		}
,
		{
			"children": [
				3, 4
			]
			,"name": "Default"		}
,
		{
			"mesh": 0
			,"name": "green glass"		}
,
		{
			"mesh": 1
			,"name": "Walnut leg"		}
,
		{
			"matrix": [
				0.5234517,					0.0149827,					0.8519235,					0,
				0.4460628,					0.8470666,					-0.288974,					0,
				-0.7259657,					0.5312754,					0.4367154,					0,
				-3.164892,					2.362276,					1.756213,					1
			]
			,"camera": 0
			,"name": "SOLIDWORKS Viewport"		}
,
		{
			"matrix": [
				0.7071068,					0,					-0.7071068,					0,
				-0.1622216,					0.9733286,					-0.1622216,					0,
				0.6882472,					0.2294159,					0.6882472,					0,
				4.445094,					1.981699,					4.445094,					1
			]
			,"camera": 1
			,"name": "Default Camera"		}
,
		{
			"name": "3 Point Faded"		}
,
		{
			"name": "3 Point Faded Backplate"		}
	],
	"cameras": [
		{
			"type": "perspective",
			"perspective" : {
				"aspectRatio": 1.25,
				"yfov" : 0.3215369,
				"zfar" : 100,
				"znear" : 0.01
			}
		}
,
		{
			"type": "perspective",
			"perspective" : {
				"aspectRatio": 1.777778,
				"yfov" : 0.2617994,
				"zfar" : 100,
				"znear" : 0.01
			}
		}
	],
	"meshes" : [
		{
			"primitives" : [
				{
					"attributes" : {
					"POSITION" : 1
					,"NORMAL" : 2
					,"TEXCOORD_0" : 3
					},
					"indices" : 0,
					"mode": 4,
					"material" : 0
				}
			]
		},
		{
			"primitives" : [
				{
					"attributes" : {
					"POSITION" : 5
					,"NORMAL" : 6
					,"TEXCOORD_0" : 7
					},
					"indices" : 4,
					"mode": 4,
					"material" : 1
				}
			]
		}
	],
	"accessors" : [
			{
				"bufferView": 3,
				"byteOffset" : 0,
				"componentType" : 5125,
				"count" : 36,
				"type" : "SCALAR"
			},
			{
				"bufferView": 0,
				"byteOffset" : 0,
				"componentType" : 5126,
				"count" : 24,
				"type" : "VEC3"
								,"min": [-0.550000012,0,-0.25]
								,"max": [0.550000012,0.0250000004,0.25]
			},
			{
				"bufferView": 1,
				"byteOffset" : 0,
				"componentType" : 5126,
				"count" : 24,
				"type" : "VEC3"
			},
			{
				"bufferView": 2,
				"byteOffset" : 0,
				"componentType" : 5126,
				"count" : 24,
				"type" : "VEC2"
			},
			{
				"bufferView": 7,
				"byteOffset" : 0,
				"componentType" : 5125,
				"count" : 552,
				"type" : "SCALAR"
			},
			{
				"bufferView": 4,
				"byteOffset" : 0,
				"componentType" : 5126,
				"count" : 324,
				"type" : "VEC3"
								,"min": [-0.550000012,-0.360000014,-0.25]
								,"max": [0.550000012,3.42387562E-33,0.25]
			},
			{
				"bufferView": 5,
				"byteOffset" : 0,
				"componentType" : 5126,
				"count" : 324,
				"type" : "VEC3"
			},
			{
				"bufferView": 6,
				"byteOffset" : 0,
				"componentType" : 5126,
				"count" : 324,
				"type" : "VEC2"
			}
	],
	"materials": [
			{
				"name": "Fiberglass",
					"normalTexture": {
						"index": 0,
						"scale": 0.225
					}
				,"emissiveFactor": [
					0, 0, 0
				]
				,"pbrMetallicRoughness": {
					"baseColorFactor": [
						0.519789, 0.519789, 0.519789, 1
					]
					,"metallicFactor": 0.04868507
					,"roughnessFactor": 0.5536692
				}
				,"alphaMode": "OPAQUE"
				,"doubleSided": true
			},
			{
				"name": "Polished Walnut 2D",
				"emissiveFactor": [
					0, 0, 0
				]
				,"pbrMetallicRoughness": {
					"baseColorTexture": {
						"index": 1
						,"extensions": {
							"KHR_texture_transform": {
								"offset": [-0.4625066,0.4625066],
								"rotation": 0,
								"scale": [1, -1]
							}
						}
					}
					,"baseColorFactor": [
						1, 1, 1, 1
					]
					,"metallicFactor": 0.07407367
					,"roughnessFactor": 0.01336535
				}
				,"alphaMode": "OPAQUE"
				,"doubleSided": true
			}
	],
	"textures": [
			{
				"sampler": 0,
				"source": 0,
				"name": "coffeetable_Texture_0002.png"
			},
			{
				"sampler": 1,
				"source": 1,
				"name": "coffeetable_Texture_0004.png"
			}
	],
	"images": [
			{
				"uri": "coffeetable_Texture_0002.png"
			},
			{
				"uri": "coffeetable_Texture_0004.png"
			}
	],
	"samplers": [
			{
				"magFilter": 9729,
				"minFilter" : 9729,
				"wrapS" : 10497,
				"wrapT" : 10497,
				"name": "DefaultSampler"
			},
			{
				"magFilter": 9729,
				"minFilter" : 9729,
				"wrapS" : 10497,
				"wrapT" : 10497,
				"name": "DefaultSampler"
			}
	],
	"bufferViews" : [
			{
				"buffer": 0
				,"byteOffset" : 0
				,"byteLength" : 288
				,"byteStride" : 12
				,"target" : 34962
			},
			{
				"buffer": 0
				,"byteOffset" : 288
				,"byteLength" : 288
				,"byteStride" : 12
				,"target" : 34962
			},
			{
				"buffer": 0
				,"byteOffset" : 576
				,"byteLength" : 192
				,"byteStride" : 8
				,"target" : 34962
			},
			{
				"buffer": 0
				,"byteOffset" : 768
				,"byteLength" : 144
				,"target" : 34963
			},
			{
				"buffer": 1
				,"byteOffset" : 0
				,"byteLength" : 3888
				,"byteStride" : 12
				,"target" : 34962
			},
			{
				"buffer": 1
				,"byteOffset" : 3888
				,"byteLength" : 3888
				,"byteStride" : 12
				,"target" : 34962
			},
			{
				"buffer": 1
				,"byteOffset" : 7776
				,"byteLength" : 2592
				,"byteStride" : 8
				,"target" : 34962
			},
			{
				"buffer": 1
				,"byteOffset" : 10368
				,"byteLength" : 2208
				,"target" : 34963
			}
	],
	"buffers" : [
			{
				"byteLength": 912
				,"uri" : "coffeetable_0001.bin"
			},
			{
				"byteLength": 12576
				,"uri" : "coffeetable_0002.bin"
			}
	]
}
